# xmcd
#
# Track frame offsets: 
#        150
#        13459
#        23140
#        38067
#        46780
#        60589
#        71465
#        82770
#        98127
#        103997
#        117575
#        129702
#        145240
#        160447
#        166932
#        182322
#
# Disc length: 2566 seconds
#
# Revision: 9
# Processed by: cddbd v1.5.2PL0 Copyright (c) Steve Scherf et al.
# Submitted via: ExactAudioCopy v1.3
#
DISCID=d30a0410
DTITLE=Various Artist - She Moves Me - Classic Blues
DYEAR=1997
DGENRE=Blues
TTITLE0=Muddy Waters - She moves me
TTITLE1=Roy Milton - Red light (Signals of love)
TTITLE2=Ray Charles - I'm wonderin' and Wwnderin'
TTITLE3=Billie Holiday - When your lover has gone
TTITLE4=B.B. King - B.B. boogie
TTITLE5=Elmore James - Coming home
TTITLE6=John Lee Hooker - Little wheel
TTITLE7=The Nat King Vole Trio - Don't cry, cry baby
TTITLE8=Leadbelly - Big fat woman
TTITLE9=Ella Fitzgerald - Basin Street blues
TTITLE10=Jimmy Reed - Little rain
TTITLE11=B.B. King - Walkin' and cryin'
TTITLE12=Gatemouth Moore - Somebody got to go
TTITLE13=Lightnin' Hopkins - Just pickin'
TTITLE14=Billie Holiday - Easy to remember
TTITLE15=Ray Charles - Hey now (Did you cry the blues)
EXTD=YEAR: 1997
EXTT0=Muddy Waters\n
EXTT1=Roy Milton\n
EXTT2=Ray Charles\n
EXTT3=Billie Holliday\n
EXTT4=B.B.King\n
EXTT5=Elmore James\n
EXTT6=John Lee Hooker\n
EXTT7=The NAt King Cole Trio\n
EXTT8=Leadbelly\n
EXTT9=Ella Fitzegerald\n
EXTT10=Jimmy Reed\n
EXTT11=B.B.King\n
EXTT12=Gatemouth Moore\n
EXTT13=Lightnin' Hopkins\n
EXTT14=Billie Holliday\n
EXTT15=Ray Charles\n
PLAYORDER=
